<svg width="13" height="13" viewBox="0 0 13 13" fill="none" xmlns="http://www.w3.org/2000/svg">
<path fill-rule="evenodd" clip-rule="evenodd" d="M8.89747 5.28942C8.13973 4.9777 7.32366 4.81488 6.49951 4.81488C4.76729 4.81488 3.13794 5.52452 1.91167 6.81299C0.690701 8.09586 0.012361 9.79988 0.00144574 11.6112L0 11.8545L0.202548 11.9747C1.17875 12.5543 2.28271 12.8592 3.40139 12.8592C3.43215 12.8592 3.46316 12.8589 3.49399 12.8585C4.46914 12.8439 5.43389 12.5991 6.30847 12.1476C6.0327 11.9866 5.76842 11.8053 5.5172 11.6055C3.99273 12.2321 2.26501 12.1549 0.802853 11.37C0.945078 8.19138 3.45304 5.64522 6.49951 5.64522C7.34684 5.64522 8.18377 5.84081 8.93961 6.21244C8.94936 5.90474 8.93533 5.5963 8.89747 5.28942Z" fill="#DFDEDF"/>
<path fill-rule="evenodd" clip-rule="evenodd" d="M12.9975 11.5548C12.9743 9.30276 11.9234 7.24814 10.1716 5.99658C10.1729 6.3261 10.1518 6.65546 10.1084 6.98283C11.3532 8.0434 12.1121 9.6051 12.1951 11.3161C9.51001 12.7598 6.16132 11.7487 4.63597 8.98986C4.22397 8.24462 3.97136 7.41143 3.89713 6.56005C3.63798 6.70751 3.39046 6.87719 3.1568 7.06739C3.28001 7.88673 3.54776 8.68238 3.94733 9.40501C4.81503 10.9744 6.21002 12.0995 7.87521 12.5731C8.44017 12.7338 9.0146 12.8133 9.58585 12.8133C10.6989 12.8133 11.8001 12.5115 12.7964 11.9202L13 11.7993L12.9975 11.5548Z" fill="#DFDEDF"/>
<path fill-rule="evenodd" clip-rule="evenodd" d="M6.72915 0.122927L6.5283 0L6.32745 0.122739C5.33496 0.728808 4.51042 1.59776 3.9429 2.63556C3.45283 3.53183 3.16296 4.53583 3.09497 5.56065C3.36666 5.39213 3.6497 5.24395 3.94235 5.11733C4.19446 3.42793 5.13596 1.90109 6.52798 0.968059C9.08459 2.68339 9.92531 6.23989 8.38969 9.01737C7.97379 9.76961 7.40515 10.42 6.73148 10.9193C6.98309 11.0794 7.24731 11.2184 7.52188 11.3346C8.14464 10.8077 8.67482 10.1623 9.07831 9.43257C10.8713 6.1897 9.81741 2.01345 6.72915 0.122927Z" fill="#DFDEDF"/>
<path fill-rule="evenodd" clip-rule="evenodd" d="M6.52438 7.20884C6.15811 7.20884 5.86014 7.51999 5.86014 7.90242C5.86014 8.2849 6.15811 8.59605 6.52438 8.59605C6.89066 8.59605 7.18868 8.2849 7.18868 7.90242C7.18868 7.51999 6.89066 7.20884 6.52438 7.20884ZM6.52438 9.42636C5.71963 9.42636 5.065 8.74278 5.065 7.90242C5.065 7.06211 5.71963 6.37848 6.52438 6.37848C7.32914 6.37848 7.98385 7.06211 7.98385 7.90242C7.98385 8.74278 7.32914 9.42636 6.52438 9.42636Z" fill="#DFDEDF"/>
</svg>
